<svg id="a407fcac-1b9f-40af-8d5d-c125227809c3" data-name="Слой 1" xmlns="http://www.w3.org/2000/svg" viewBox="0 0 244 372"><title>geo clusters2</title><rect width="244" height="372" rx="15" ry="15" fill="#0088fb"/><rect x="7" y="8" width="230" height="50" rx="10" ry="10" fill="#2e3d4c"/><rect x="7" y="59" width="230" height="50" rx="10" ry="10" fill="#2e3d4c"/><rect x="7" y="110" width="230" height="50" rx="10" ry="10" fill="#2e3d4c"/><rect x="7" y="161" width="230" height="50" rx="10" ry="10" fill="#2e3d4c"/><rect x="7" y="212" width="230" height="50" rx="10" ry="10" fill="#2e3d4c"/><rect x="7" y="263" width="230" height="50" rx="10" ry="10" fill="#2e3d4c"/><rect x="7" y="314" width="230" height="50" rx="10" ry="10" fill="#2e3d4c"/><path d="M62.07,30.27A3.33,3.33,0,0,1,60.9,33a5.16,5.16,0,0,1-3.34,1H56.38v4.27H54.51V26.81H57.8a5,5,0,0,1,3.21.88A3.14,3.14,0,0,1,62.07,30.27Zm-5.7,2.13h1a3.56,3.56,0,0,0,2.11-.5,1.82,1.82,0,0,0,.67-1.56,1.78,1.78,0,0,0-.6-1.47,3,3,0,0,0-1.87-.48h-1.3Z" fill="#fff"/><path d="M68.54,29.44a4.45,4.45,0,0,1,.91.08l-.18,1.71a3.47,3.47,0,0,0-.81-.09,2.35,2.35,0,0,0-1.79.72A2.6,2.6,0,0,0,66,33.72v4.52H64.16V29.59h1.44l.24,1.52h.09a3.42,3.42,0,0,1,1.12-1.23A2.67,2.67,0,0,1,68.54,29.44Z" fill="#fff"/><path d="M74.83,38.39a4.18,4.18,0,0,1-3.15-1.18A4.46,4.46,0,0,1,70.54,34a4.9,4.9,0,0,1,1.05-3.33,3.64,3.64,0,0,1,2.9-1.21,3.56,3.56,0,0,1,2.7,1,4,4,0,0,1,1,2.86v1H72.43a2.83,2.83,0,0,0,.68,1.93,2.37,2.37,0,0,0,1.8.68,6.65,6.65,0,0,0,1.43-.14,7.48,7.48,0,0,0,1.42-.48V37.8a5.63,5.63,0,0,1-1.36.45A8.36,8.36,0,0,1,74.83,38.39Zm-.34-7.56a1.84,1.84,0,0,0-1.4.55A2.64,2.64,0,0,0,72.46,33h3.92a2.4,2.4,0,0,0-.52-1.62A1.76,1.76,0,0,0,74.49,30.83Z" fill="#fff"/><path d="M87.55,38.23H85.71V32.91a2.42,2.42,0,0,0-.37-1.48,1.38,1.38,0,0,0-1.17-.49,1.79,1.79,0,0,0-1.56.69,4.05,4.05,0,0,0-.5,2.3v4.3H80.27V29.59h1.44L82,30.73h.09a2.39,2.39,0,0,1,1-1,3.37,3.37,0,0,1,1.5-.34,2.63,2.63,0,0,1,2.64,1.36h.13a2.63,2.63,0,0,1,1.08-1A3.42,3.42,0,0,1,90,29.44a2.9,2.9,0,0,1,2.25.78A3.46,3.46,0,0,1,93,32.6v5.63H91.17V32.91a2.4,2.4,0,0,0-.38-1.48,1.4,1.4,0,0,0-1.18-.49,1.82,1.82,0,0,0-1.57.67,3.44,3.44,0,0,0-.5,2.05Z" fill="#fff"/><path d="M95.46,27.3a1,1,0,0,1,.27-.76,1.05,1.05,0,0,1,.77-.27,1,1,0,0,1,.75.27,1,1,0,0,1,.27.76,1,1,0,0,1-.27.74,1,1,0,0,1-.75.27,1,1,0,0,1-.77-.27A1,1,0,0,1,95.46,27.3Zm1.95,10.93H95.57V29.59h1.84Z" fill="#fff"/><path d="M106.13,38.23l-.26-1.13h-.09a2.61,2.61,0,0,1-1.09.95,3.65,3.65,0,0,1-1.61.34,3.17,3.17,0,0,1-2.34-.78,3.24,3.24,0,0,1-.77-2.37V29.59h1.85v5.33a2.31,2.31,0,0,0,.41,1.49,1.55,1.55,0,0,0,1.27.5,2,2,0,0,0,1.7-.69,3.81,3.81,0,0,0,.54-2.32v-4.3h1.84v8.64Z" fill="#fff"/><path d="M117.47,38.23h-1.84V32.91a2.42,2.42,0,0,0-.37-1.48,1.38,1.38,0,0,0-1.17-.49,1.79,1.79,0,0,0-1.56.69,4.05,4.05,0,0,0-.5,2.3v4.3h-1.84V29.59h1.44l.26,1.13H112a2.39,2.39,0,0,1,1-1,3.37,3.37,0,0,1,1.5-.34,2.63,2.63,0,0,1,2.64,1.36h.13a2.63,2.63,0,0,1,1.08-1,3.42,3.42,0,0,1,1.59-.36,2.9,2.9,0,0,1,2.25.78,3.46,3.46,0,0,1,.71,2.38v5.63h-1.84V32.91a2.4,2.4,0,0,0-.38-1.48,1.4,1.4,0,0,0-1.18-.49,1.82,1.82,0,0,0-1.57.67,3.44,3.44,0,0,0-.5,2.05Z" fill="#fff"/><path d="M134.7,28.25a3.08,3.08,0,0,0-2.53,1.14,4.87,4.87,0,0,0-.92,3.15,4.9,4.9,0,0,0,.89,3.18,3.13,3.13,0,0,0,2.57,1.08,6.72,6.72,0,0,0,1.41-.14q.68-.14,1.41-.37v1.6a8.57,8.57,0,0,1-3,.51,4.87,4.87,0,0,1-3.85-1.52,6.35,6.35,0,0,1-1.34-4.35,7,7,0,0,1,.65-3.12,4.65,4.65,0,0,1,1.89-2,5.71,5.71,0,0,1,2.9-.71,7.2,7.2,0,0,1,3.23.73l-.67,1.55a10.11,10.11,0,0,0-1.22-.48A4.42,4.42,0,0,0,134.7,28.25Z" fill="#fff"/><path d="M149.27,32.41a5.69,5.69,0,0,1-1.57,4.32,6.31,6.31,0,0,1-4.52,1.5H140V26.81h3.53a5.84,5.84,0,0,1,4.24,1.47A5.49,5.49,0,0,1,149.27,32.41Zm-2,.06q0-4.1-3.84-4.1h-1.62v8.29h1.33Q147.3,36.66,147.3,32.48Z" fill="#fff"/><path d="M161.23,38.23h-2.29l-5.62-9.1h-.06l0,.51q.11,1.45.11,2.66v5.94h-1.7V26.81H154l5.6,9.05h0q0-.18-.06-1.31t0-1.76v-6h1.71Z" fill="#fff"/><path d="M54.51,88V76.58h1.87V86.4h4.84V88Z" fill="#fff"/><path d="M66.76,88.16A4.18,4.18,0,0,1,63.61,87a4.46,4.46,0,0,1-1.14-3.24,4.9,4.9,0,0,1,1.05-3.33,3.64,3.64,0,0,1,2.9-1.21,3.56,3.56,0,0,1,2.7,1,4,4,0,0,1,1,2.86v1H64.36A2.84,2.84,0,0,0,65,86a2.37,2.37,0,0,0,1.8.68,6.64,6.64,0,0,0,1.43-.14,7.44,7.44,0,0,0,1.42-.48v1.49a5.63,5.63,0,0,1-1.36.45A8.3,8.3,0,0,1,66.76,88.16Zm-.34-7.56a1.85,1.85,0,0,0-1.4.55,2.64,2.64,0,0,0-.63,1.62h3.92a2.4,2.4,0,0,0-.52-1.62A1.76,1.76,0,0,0,66.42,80.59Z" fill="#fff"/><path d="M75.42,86.67a4.46,4.46,0,0,0,1.34-.21v1.38a3.67,3.67,0,0,1-.79.22,5.44,5.44,0,0,1-1,.09q-2.61,0-2.61-2.75V80.75H71.2v-.81l1.27-.67.63-1.83h1.13v1.92h2.46v1.39H74.22v4.63a1.3,1.3,0,0,0,.33,1A1.21,1.21,0,0,0,75.42,86.67Z" fill="#fff"/><path d="M80,76.58l.12.17a22.69,22.69,0,0,1-1.37,3.74H77.38q.54-2.26.78-3.91Z" fill="#fff"/><path d="M87.38,85.54a2.26,2.26,0,0,1-.92,1.94,4.41,4.41,0,0,1-2.64.68A6.24,6.24,0,0,1,81,87.63V86a6.81,6.81,0,0,0,2.84.7q1.69,0,1.7-1a.81.81,0,0,0-.19-.55,2.23,2.23,0,0,0-.62-.45,10.63,10.63,0,0,0-1.2-.53,5.52,5.52,0,0,1-2-1.16,2.14,2.14,0,0,1-.53-1.5,2,2,0,0,1,.89-1.72,4.25,4.25,0,0,1,2.43-.61,6.9,6.9,0,0,1,2.88.62l-.59,1.38a6.42,6.42,0,0,0-2.35-.58q-1.45,0-1.45.83a.83.83,0,0,0,.38.69,8.35,8.35,0,0,0,1.65.77,7.58,7.58,0,0,1,1.55.76,2.27,2.27,0,0,1,.72.79A2.3,2.3,0,0,1,87.38,85.54Z" fill="#fff"/><path d="M100.18,88H93.72V76.58h6.46v1.58H95.59v3.11h4.3v1.56h-4.3v3.59h4.59Z" fill="#fff"/><path d="M110.05,88h-1.84V82.69a2.32,2.32,0,0,0-.4-1.49,1.56,1.56,0,0,0-1.28-.49,2,2,0,0,0-1.7.69,3.8,3.8,0,0,0-.54,2.3V88h-1.84V79.36h1.44l.26,1.13h.09a2.56,2.56,0,0,1,1.11-1,3.72,3.72,0,0,1,1.59-.34q3.11,0,3.11,3.16Z" fill="#fff"/><path d="M116.09,88.16a3.78,3.78,0,0,1-3-1.14,5.8,5.8,0,0,1,0-6.64,4,4,0,0,1,3.08-1.17,5.78,5.78,0,0,1,2.46.51l-.55,1.48a5.57,5.57,0,0,0-1.92-.45q-2.24,0-2.24,3a3.57,3.57,0,0,0,.56,2.18,1.93,1.93,0,0,0,1.64.73A4.7,4.7,0,0,0,118.5,86v1.6a3.62,3.62,0,0,1-1.05.41A6.32,6.32,0,0,1,116.09,88.16Z" fill="#fff"/><path d="M124.91,79.2a4.44,4.44,0,0,1,.91.08L125.65,81a3.47,3.47,0,0,0-.81-.09,2.35,2.35,0,0,0-1.79.72,2.6,2.6,0,0,0-.68,1.87V88h-1.84V79.36H122l.24,1.52h.09a3.42,3.42,0,0,1,1.12-1.23A2.67,2.67,0,0,1,124.91,79.2Z" fill="#fff"/><path d="M126.12,79.36h2l1.76,4.9a9.32,9.32,0,0,1,.53,2h.06a8.24,8.24,0,0,1,.26-1q.19-.61,2-5.82h2L131,89.15q-1,2.7-3.36,2.7a5.27,5.27,0,0,1-1.19-.13V90.26a4.3,4.3,0,0,0,.95.09,1.94,1.94,0,0,0,1.87-1.54l.32-.81Z" fill="#fff"/><path d="M140.39,88.16A3,3,0,0,1,137.84,87h-.11q.11,1.09.11,1.33v3.54H136V79.36h1.48q.06.24.26,1.16h.09a2.88,2.88,0,0,1,2.58-1.31,3,3,0,0,1,2.52,1.17,6.43,6.43,0,0,1,0,6.59A3,3,0,0,1,140.39,88.16Zm-.45-7.45a1.91,1.91,0,0,0-1.6.64,3.32,3.32,0,0,0-.5,2v.27a4,4,0,0,0,.5,2.29,1.86,1.86,0,0,0,1.63.71,1.66,1.66,0,0,0,1.47-.78,4,4,0,0,0,.52-2.23,3.9,3.9,0,0,0-.51-2.2A1.71,1.71,0,0,0,139.95,80.7Z" fill="#fff"/><path d="M149.2,86.67a4.46,4.46,0,0,0,1.34-.21v1.38a3.67,3.67,0,0,1-.79.22,5.44,5.44,0,0,1-1,.09q-2.61,0-2.61-2.75V80.75H145v-.81l1.27-.67.63-1.83H148v1.92h2.46v1.39H148v4.63a1.3,1.3,0,0,0,.33,1A1.21,1.21,0,0,0,149.2,86.67Z" fill="#fff"/><path d="M163.2,84.9a2.87,2.87,0,0,1-1.1,2.39,4.79,4.79,0,0,1-3,.87,7.25,7.25,0,0,1-3.17-.6V85.79a8.59,8.59,0,0,0,1.66.58,7,7,0,0,0,1.64.21,2.6,2.6,0,0,0,1.64-.42,1.38,1.38,0,0,0,.53-1.13,1.42,1.42,0,0,0-.48-1.09,7.29,7.29,0,0,0-2-1.05,5.28,5.28,0,0,1-2.2-1.45,3.06,3.06,0,0,1-.64-2,2.74,2.74,0,0,1,1-2.25,4.21,4.21,0,0,1,2.73-.82,8,8,0,0,1,3.27.72l-.59,1.52a7.14,7.14,0,0,0-2.72-.64,2.09,2.09,0,0,0-1.37.39,1.3,1.3,0,0,0-.47,1,1.47,1.47,0,0,0,.19.76,1.92,1.92,0,0,0,.62.6,10.39,10.39,0,0,0,1.55.74,8.48,8.48,0,0,1,1.84,1,2.88,2.88,0,0,1,.86,1A3.07,3.07,0,0,1,163.2,84.9Z" fill="#fff"/><path d="M172,84.9a2.87,2.87,0,0,1-1.1,2.39,4.79,4.79,0,0,1-3,.87,7.25,7.25,0,0,1-3.17-.6V85.79a8.59,8.59,0,0,0,1.66.58,7,7,0,0,0,1.64.21,2.6,2.6,0,0,0,1.64-.42,1.38,1.38,0,0,0,.53-1.13,1.42,1.42,0,0,0-.48-1.09,7.29,7.29,0,0,0-2-1.05,5.28,5.28,0,0,1-2.2-1.45,3.06,3.06,0,0,1-.64-2,2.74,2.74,0,0,1,1-2.25,4.21,4.21,0,0,1,2.73-.82,8,8,0,0,1,3.27.72l-.59,1.52a7.14,7.14,0,0,0-2.72-.64,2.09,2.09,0,0,0-1.37.39,1.3,1.3,0,0,0-.47,1,1.47,1.47,0,0,0,.19.76,1.92,1.92,0,0,0,.62.6,10.39,10.39,0,0,0,1.55.74,8.48,8.48,0,0,1,1.84,1,2.88,2.88,0,0,1,.86,1A3.07,3.07,0,0,1,172,84.9Z" fill="#fff"/><path d="M174.21,88V76.58h1.87V86.4h4.84V88Z" fill="#fff"/><path d="M65,141H63l-1.94-6.81q-.12-.45-.31-1.29t-.23-1.17q-.08.5-.25,1.3T60,134.22L58.1,141h-2l-1.48-5.72-1.5-5.7H55l1.63,6.66q.38,1.6.55,2.83.09-.66.26-1.48t.31-1.33l1.86-6.67h1.85l1.91,6.7a25,25,0,0,1,.58,2.78,20.4,20.4,0,0,1,.56-2.84l1.63-6.64H68Z" fill="#fff"/><path d="M76.73,141l-1.14-3.17H71.22L70.1,141h-2l4.27-11.47h2L78.71,141Zm-1.63-4.78L74,133.11q-.12-.31-.32-1t-.29-1a17.56,17.56,0,0,1-.62,2.1l-1,3Z" fill="#fff"/><path d="M82.07,141H80.22V129.58h6.45v1.58H82.07v3.57h4.3v1.59h-4.3Z" fill="#fff"/><path d="M54.51,193V181.58h1.87v9.82h4.84V193Z" fill="#fff"/><path d="M62.88,182.07a1,1,0,0,1,.27-.76,1.05,1.05,0,0,1,.77-.27,1,1,0,0,1,.75.27,1,1,0,0,1,.27.76,1,1,0,0,1-.27.74,1,1,0,0,1-.75.27,1,1,0,0,1-.77-.27A1,1,0,0,1,62.88,182.07ZM64.82,193H63v-8.64h1.84Z" fill="#fff"/><path d="M70.66,191.67a4.46,4.46,0,0,0,1.34-.21v1.38a3.67,3.67,0,0,1-.79.22,5.44,5.44,0,0,1-1,.09q-2.61,0-2.61-2.75v-4.66H66.44v-.81l1.27-.67.63-1.83h1.13v1.92h2.46v1.39H69.46v4.63a1.3,1.3,0,0,0,.33,1A1.21,1.21,0,0,0,70.66,191.67Z" fill="#fff"/><path d="M77.51,193.16A4.18,4.18,0,0,1,74.36,192a4.46,4.46,0,0,1-1.14-3.24,4.9,4.9,0,0,1,1.05-3.33,3.64,3.64,0,0,1,2.9-1.21,3.56,3.56,0,0,1,2.7,1,4,4,0,0,1,1,2.86v1H75.11a2.84,2.84,0,0,0,.68,1.93,2.36,2.36,0,0,0,1.8.68,6.64,6.64,0,0,0,1.43-.14,7.37,7.37,0,0,0,1.42-.48v1.49a5.6,5.6,0,0,1-1.36.45A8.3,8.3,0,0,1,77.51,193.16Zm-.34-7.56a1.85,1.85,0,0,0-1.4.55,2.64,2.64,0,0,0-.63,1.62h3.92a2.4,2.4,0,0,0-.52-1.62A1.76,1.76,0,0,0,77.17,185.59Z" fill="#fff"/><path d="M89.73,189.9a2.87,2.87,0,0,1-1.1,2.39,4.79,4.79,0,0,1-3,.87,7.25,7.25,0,0,1-3.17-.6v-1.77a8.59,8.59,0,0,0,1.66.58,7,7,0,0,0,1.64.21,2.6,2.6,0,0,0,1.64-.42,1.37,1.37,0,0,0,.53-1.13,1.42,1.42,0,0,0-.48-1.09,7.29,7.29,0,0,0-2-1.05,5.28,5.28,0,0,1-2.2-1.45,3.06,3.06,0,0,1-.64-2,2.74,2.74,0,0,1,1-2.25,4.21,4.21,0,0,1,2.73-.82,8,8,0,0,1,3.27.72L89,183.66a7.14,7.14,0,0,0-2.72-.64,2.09,2.09,0,0,0-1.37.39,1.3,1.3,0,0,0-.47,1,1.47,1.47,0,0,0,.19.76,1.92,1.92,0,0,0,.62.6,10.39,10.39,0,0,0,1.55.74,8.48,8.48,0,0,1,1.84,1,2.88,2.88,0,0,1,.86,1A3.08,3.08,0,0,1,89.73,189.9Z" fill="#fff"/><path d="M96.13,193.16A3,3,0,0,1,93.59,192h-.11q.11,1.09.11,1.33v3.54H91.75V184.36h1.48q.06.24.26,1.16h.09a2.88,2.88,0,0,1,2.58-1.31,3,3,0,0,1,2.52,1.17,6.43,6.43,0,0,1,0,6.59A3,3,0,0,1,96.13,193.16Zm-.45-7.45a1.91,1.91,0,0,0-1.6.64,3.32,3.32,0,0,0-.5,2v.27a4,4,0,0,0,.5,2.29,1.86,1.86,0,0,0,1.63.71,1.66,1.66,0,0,0,1.47-.78,4,4,0,0,0,.52-2.23,3.9,3.9,0,0,0-.51-2.2A1.71,1.71,0,0,0,95.69,185.7Z" fill="#fff"/><path d="M105.49,193.16a4.18,4.18,0,0,1-3.15-1.18,4.46,4.46,0,0,1-1.14-3.24,4.9,4.9,0,0,1,1.05-3.33,3.64,3.64,0,0,1,2.9-1.21,3.56,3.56,0,0,1,2.7,1,4,4,0,0,1,1,2.86v1h-5.76a2.84,2.84,0,0,0,.68,1.93,2.36,2.36,0,0,0,1.8.68,6.64,6.64,0,0,0,1.43-.14,7.37,7.37,0,0,0,1.42-.48v1.49a5.6,5.6,0,0,1-1.36.45A8.3,8.3,0,0,1,105.49,193.16Zm-.34-7.56a1.85,1.85,0,0,0-1.4.55,2.64,2.64,0,0,0-.63,1.62H107a2.4,2.4,0,0,0-.52-1.62A1.76,1.76,0,0,0,105.16,185.59Z" fill="#fff"/><path d="M114.71,193.16a4.18,4.18,0,0,1-3.15-1.18,4.46,4.46,0,0,1-1.14-3.24,4.9,4.9,0,0,1,1.05-3.33,3.64,3.64,0,0,1,2.9-1.21,3.56,3.56,0,0,1,2.7,1,4,4,0,0,1,1,2.86v1h-5.76A2.84,2.84,0,0,0,113,191a2.36,2.36,0,0,0,1.8.68,6.64,6.64,0,0,0,1.43-.14,7.37,7.37,0,0,0,1.42-.48v1.49a5.6,5.6,0,0,1-1.36.45A8.3,8.3,0,0,1,114.71,193.16Zm-.34-7.56a1.85,1.85,0,0,0-1.4.55,2.64,2.64,0,0,0-.63,1.62h3.92a2.4,2.4,0,0,0-.52-1.62A1.76,1.76,0,0,0,114.38,185.59Z" fill="#fff"/><path d="M123.07,193.16a3,3,0,0,1-2.52-1.17,6.42,6.42,0,0,1,0-6.6,3,3,0,0,1,2.54-1.18,3,3,0,0,1,2.59,1.26h.09a11,11,0,0,1-.13-1.47v-3.15h1.84V193h-1.44l-.32-1.13h-.09A2.94,2.94,0,0,1,123.07,193.16Zm.49-1.48a2,2,0,0,0,1.65-.64,3.35,3.35,0,0,0,.53-2.07v-.26a3.87,3.87,0,0,0-.53-2.32,2,2,0,0,0-1.66-.69,1.69,1.69,0,0,0-1.49.79,4,4,0,0,0-.52,2.24,3.92,3.92,0,0,0,.51,2.19A1.71,1.71,0,0,0,123.56,191.67Z" fill="#fff"/><path d="M145,193h-2L141,186.19q-.12-.45-.31-1.29t-.23-1.17q-.08.5-.25,1.3t-.29,1.19L138.07,193h-2l-1.48-5.72-1.5-5.7H135l1.63,6.66q.38,1.6.55,2.83.09-.66.26-1.48t.31-1.33l1.86-6.67h1.85l1.91,6.7a25,25,0,0,1,.58,2.78,20.42,20.42,0,0,1,.56-2.84l1.63-6.64H148Z" fill="#fff"/><path d="M153.19,193.16A4.18,4.18,0,0,1,150,192a4.46,4.46,0,0,1-1.14-3.24,4.9,4.9,0,0,1,1.05-3.33,3.64,3.64,0,0,1,2.9-1.21,3.56,3.56,0,0,1,2.7,1,4,4,0,0,1,1,2.86v1h-5.76a2.84,2.84,0,0,0,.68,1.93,2.36,2.36,0,0,0,1.8.68,6.64,6.64,0,0,0,1.43-.14,7.37,7.37,0,0,0,1.42-.48v1.49a5.6,5.6,0,0,1-1.36.45A8.3,8.3,0,0,1,153.19,193.16Zm-.34-7.56a1.85,1.85,0,0,0-1.4.55,2.64,2.64,0,0,0-.63,1.62h3.92a2.4,2.4,0,0,0-.52-1.62A1.76,1.76,0,0,0,152.85,185.59Z" fill="#fff"/><path d="M163,184.2a3,3,0,0,1,2.52,1.17,6.45,6.45,0,0,1,0,6.6,3.33,3.33,0,0,1-5.09,0h-.12l-.34,1h-1.37V180.84h1.84v2.89q0,.32,0,1t0,.8h.08A2.91,2.91,0,0,1,163,184.2Zm-.48,1.5a1.87,1.87,0,0,0-1.6.65,3.8,3.8,0,0,0-.5,2.18v.13a4,4,0,0,0,.5,2.29,1.86,1.86,0,0,0,1.63.71,1.65,1.65,0,0,0,1.48-.77,4.1,4.1,0,0,0,.5-2.23Q164.59,185.7,162.57,185.7Z" fill="#fff"/><path d="M179.54,189.9a2.87,2.87,0,0,1-1.1,2.39,4.79,4.79,0,0,1-3,.87,7.25,7.25,0,0,1-3.17-.6v-1.77a8.59,8.59,0,0,0,1.66.58,7,7,0,0,0,1.64.21,2.6,2.6,0,0,0,1.64-.42,1.37,1.37,0,0,0,.53-1.13,1.42,1.42,0,0,0-.48-1.09,7.29,7.29,0,0,0-2-1.05,5.28,5.28,0,0,1-2.2-1.45,3.06,3.06,0,0,1-.64-2,2.74,2.74,0,0,1,1-2.25,4.21,4.21,0,0,1,2.73-.82,8,8,0,0,1,3.27.72l-.59,1.52a7.14,7.14,0,0,0-2.72-.64,2.09,2.09,0,0,0-1.37.39,1.3,1.3,0,0,0-.47,1,1.47,1.47,0,0,0,.19.76,1.92,1.92,0,0,0,.62.6,10.39,10.39,0,0,0,1.55.74,8.48,8.48,0,0,1,1.84,1,2.88,2.88,0,0,1,.86,1A3.08,3.08,0,0,1,179.54,189.9Z" fill="#fff"/><path d="M185.33,193.16a4.18,4.18,0,0,1-3.15-1.18,4.46,4.46,0,0,1-1.14-3.24,4.9,4.9,0,0,1,1.05-3.33,3.64,3.64,0,0,1,2.9-1.21,3.56,3.56,0,0,1,2.7,1,4,4,0,0,1,1,2.86v1h-5.76a2.84,2.84,0,0,0,.68,1.93,2.36,2.36,0,0,0,1.8.68,6.64,6.64,0,0,0,1.43-.14,7.37,7.37,0,0,0,1.42-.48v1.49a5.6,5.6,0,0,1-1.36.45A8.3,8.3,0,0,1,185.33,193.16Zm-.34-7.56a1.85,1.85,0,0,0-1.4.55,2.64,2.64,0,0,0-.63,1.62h3.92a2.4,2.4,0,0,0-.52-1.62A1.76,1.76,0,0,0,185,185.59Z" fill="#fff"/><path d="M195.16,184.2a4.44,4.44,0,0,1,.91.08l-.18,1.71a3.47,3.47,0,0,0-.81-.09,2.35,2.35,0,0,0-1.79.72,2.6,2.6,0,0,0-.68,1.87V193h-1.84v-8.64h1.44l.24,1.52h.09a3.42,3.42,0,0,1,1.12-1.23A2.67,2.67,0,0,1,195.16,184.2Z" fill="#fff"/><path d="M199.64,193l-3.28-8.64h1.94l1.76,5a10,10,0,0,1,.55,2h.06a13.81,13.81,0,0,1,.55-2l1.76-5h2l-3.3,8.64Z" fill="#fff"/><path d="M210,193.16a4.18,4.18,0,0,1-3.15-1.18,4.46,4.46,0,0,1-1.14-3.24,4.9,4.9,0,0,1,1.05-3.33,3.64,3.64,0,0,1,2.9-1.21,3.56,3.56,0,0,1,2.7,1,4,4,0,0,1,1,2.86v1h-5.76a2.84,2.84,0,0,0,.68,1.93,2.36,2.36,0,0,0,1.8.68,6.64,6.64,0,0,0,1.43-.14,7.37,7.37,0,0,0,1.42-.48v1.49a5.6,5.6,0,0,1-1.36.45A8.3,8.3,0,0,1,210,193.16Zm-.34-7.56a1.85,1.85,0,0,0-1.4.55,2.64,2.64,0,0,0-.63,1.62h3.92a2.4,2.4,0,0,0-.52-1.62A1.76,1.76,0,0,0,209.67,185.59Z" fill="#fff"/><path d="M219.84,184.2a4.44,4.44,0,0,1,.91.08l-.18,1.71a3.47,3.47,0,0,0-.81-.09,2.35,2.35,0,0,0-1.79.72,2.6,2.6,0,0,0-.68,1.87V193h-1.84v-8.64h1.44l.24,1.52h.09a3.42,3.42,0,0,1,1.12-1.23A2.67,2.67,0,0,1,219.84,184.2Z" fill="#fff"/><path d="M56.38,238.44V243H54.51V231.58h3.23a5.3,5.3,0,0,1,3.27.83,3,3,0,0,1,1.06,2.5,3.12,3.12,0,0,1-2.22,3L63.08,243H61l-2.73-4.56Zm0-1.55h1.3a3,3,0,0,0,1.89-.48,1.76,1.76,0,0,0,.59-1.44,1.55,1.55,0,0,0-.63-1.39,3.47,3.47,0,0,0-1.91-.42H56.38Z" fill="#fff"/><path d="M68.31,243.16A4.18,4.18,0,0,1,65.16,242,4.46,4.46,0,0,1,64,238.74a4.9,4.9,0,0,1,1.05-3.33A3.64,3.64,0,0,1,68,234.2a3.56,3.56,0,0,1,2.7,1,4,4,0,0,1,1,2.86v1H65.91a2.84,2.84,0,0,0,.68,1.93,2.36,2.36,0,0,0,1.8.68,6.64,6.64,0,0,0,1.43-.14,7.37,7.37,0,0,0,1.42-.48v1.49a5.6,5.6,0,0,1-1.36.45A8.3,8.3,0,0,1,68.31,243.16ZM68,235.59a1.85,1.85,0,0,0-1.4.55,2.64,2.64,0,0,0-.63,1.62h3.92a2.4,2.4,0,0,0-.52-1.62A1.76,1.76,0,0,0,68,235.59Z" fill="#fff"/><path d="M76.67,243.16A3,3,0,0,1,74.15,242a6.42,6.42,0,0,1,0-6.6,3,3,0,0,1,2.54-1.18,3,3,0,0,1,2.59,1.26h.09a10.94,10.94,0,0,1-.13-1.47v-3.15H81.1V243H79.66l-.32-1.13h-.09A2.94,2.94,0,0,1,76.67,243.16Zm.49-1.48a2,2,0,0,0,1.65-.64,3.35,3.35,0,0,0,.53-2.07v-.26a3.87,3.87,0,0,0-.53-2.32,2,2,0,0,0-1.66-.69,1.69,1.69,0,0,0-1.49.79,4,4,0,0,0-.52,2.24,3.92,3.92,0,0,0,.51,2.19A1.71,1.71,0,0,0,77.16,241.67Z" fill="#fff"/><path d="M83.62,232.07a1,1,0,0,1,.27-.76,1.05,1.05,0,0,1,.77-.27,1,1,0,0,1,.75.27,1,1,0,0,1,.27.76,1,1,0,0,1-.27.74,1,1,0,0,1-.75.27,1,1,0,0,1-.77-.27A1,1,0,0,1,83.62,232.07ZM85.56,243H83.73v-8.64h1.84Z" fill="#fff"/><path d="M94,240.54a2.26,2.26,0,0,1-.92,1.94,4.41,4.41,0,0,1-2.64.68,6.23,6.23,0,0,1-2.77-.52V241a6.81,6.81,0,0,0,2.84.7q1.69,0,1.7-1a.81.81,0,0,0-.19-.55,2.23,2.23,0,0,0-.62-.45,10.63,10.63,0,0,0-1.2-.53,5.51,5.51,0,0,1-2-1.16,2.14,2.14,0,0,1-.53-1.5,2,2,0,0,1,.89-1.72A4.25,4.25,0,0,1,91,234.2a6.9,6.9,0,0,1,2.88.62l-.59,1.38a6.43,6.43,0,0,0-2.35-.58q-1.45,0-1.45.83a.83.83,0,0,0,.38.69,8.35,8.35,0,0,0,1.65.77,7.6,7.6,0,0,1,1.55.76,2.27,2.27,0,0,1,.72.79A2.3,2.3,0,0,1,94,240.54Z" fill="#fff"/><path d="M59.45,295l-3.31-9.54h-.06q.13,2.13.13,4V295h-1.7V283.58h2.63l3.17,9.09h0l3.27-9.09h2.64V295h-1.8v-5.65q0-.85,0-2.22t.07-1.66h-.06L61.09,295Z" fill="#fff"/><path d="M74.48,295l-.37-1.2h-.06a3.53,3.53,0,0,1-1.26,1.07,4,4,0,0,1-1.62.29,2.75,2.75,0,0,1-2-.69,2.57,2.57,0,0,1-.71-1.95,2.28,2.28,0,0,1,1-2,5.72,5.72,0,0,1,3-.74l1.49,0v-.46a1.75,1.75,0,0,0-.39-1.24,1.58,1.58,0,0,0-1.2-.41,4.16,4.16,0,0,0-1.27.2,9.77,9.77,0,0,0-1.17.46L69.35,287a6.43,6.43,0,0,1,1.54-.56,7.12,7.12,0,0,1,1.58-.19,3.74,3.74,0,0,1,2.49.72,2.82,2.82,0,0,1,.84,2.26V295Zm-2.73-1.25a2.27,2.27,0,0,0,1.61-.56,2,2,0,0,0,.61-1.57v-.75l-1.11,0a3.8,3.8,0,0,0-1.89.43,1.32,1.32,0,0,0-.59,1.18,1.15,1.15,0,0,0,.34.89A1.48,1.48,0,0,0,71.75,293.75Z" fill="#fff"/><path d="M82.74,286.2a4.44,4.44,0,0,1,.91.08L83.48,288a3.47,3.47,0,0,0-.81-.09,2.35,2.35,0,0,0-1.79.72,2.6,2.6,0,0,0-.68,1.87V295H78.36v-8.64H79.8l.24,1.52h.09a3.43,3.43,0,0,1,1.12-1.23A2.67,2.67,0,0,1,82.74,286.2Z" fill="#fff"/><path d="M85.15,284.07a1,1,0,0,1,.27-.76,1.05,1.05,0,0,1,.77-.27,1,1,0,0,1,.75.27,1,1,0,0,1,.27.76,1,1,0,0,1-.27.74,1,1,0,0,1-.75.27,1,1,0,0,1-.77-.27A1,1,0,0,1,85.15,284.07ZM87.09,295H85.26v-8.64h1.84Z" fill="#fff"/><path d="M95.13,295l-.37-1.2H94.7a3.53,3.53,0,0,1-1.26,1.07,4,4,0,0,1-1.62.29,2.75,2.75,0,0,1-2-.69,2.57,2.57,0,0,1-.71-1.95,2.28,2.28,0,0,1,1-2,5.72,5.72,0,0,1,3-.74l1.49,0v-.46a1.75,1.75,0,0,0-.39-1.24,1.58,1.58,0,0,0-1.2-.41,4.16,4.16,0,0,0-1.27.2,9.77,9.77,0,0,0-1.17.46L90,287a6.43,6.43,0,0,1,1.54-.56,7.12,7.12,0,0,1,1.58-.19,3.74,3.74,0,0,1,2.49.72,2.82,2.82,0,0,1,.84,2.26V295Zm-2.73-1.25a2.27,2.27,0,0,0,1.61-.56,2,2,0,0,0,.61-1.57v-.75l-1.11,0a3.8,3.8,0,0,0-1.89.43,1.32,1.32,0,0,0-.59,1.18,1.15,1.15,0,0,0,.34.89A1.48,1.48,0,0,0,92.39,293.75Z" fill="#fff"/><path d="M108.48,289.18a5.69,5.69,0,0,1-1.57,4.32,6.3,6.3,0,0,1-4.52,1.5H99.2V283.58h3.53A5.85,5.85,0,0,1,107,285,5.49,5.49,0,0,1,108.48,289.18Zm-2,.06q0-4.1-3.84-4.1h-1.62v8.29h1.33Q106.52,293.43,106.52,289.24Z" fill="#fff"/><path d="M110.94,283.58h3.39a6.44,6.44,0,0,1,3.41.69,2.41,2.41,0,0,1,1.05,2.17,2.63,2.63,0,0,1-.52,1.66,2.3,2.3,0,0,1-1.48.84V289a3,3,0,0,1,1.77.89,2.71,2.71,0,0,1,.57,1.81,2.93,2.93,0,0,1-1.07,2.41,4.62,4.62,0,0,1-3,.87h-4.12Zm1.87,4.72h1.8a3.07,3.07,0,0,0,1.71-.37,1.42,1.42,0,0,0,.54-1.26,1.27,1.27,0,0,0-.58-1.16,3.64,3.64,0,0,0-1.85-.36H112.8Zm0,1.52v3.62h2a2.92,2.92,0,0,0,1.77-.45,1.66,1.66,0,0,0,.6-1.42,1.51,1.51,0,0,0-.61-1.32,3.23,3.23,0,0,0-1.85-.43Z" fill="#fff"/><path d="M54.51,344V332.58h1.87v9.82h4.84V344Z" fill="#fff"/><path d="M70.65,339.66a4.72,4.72,0,0,1-1.09,3.3,3.89,3.89,0,0,1-3,1.19,4.14,4.14,0,0,1-2.14-.55A3.6,3.6,0,0,1,63,342a5.35,5.35,0,0,1-.5-2.37,4.69,4.69,0,0,1,1.08-3.28,3.91,3.91,0,0,1,3-1.18,3.81,3.81,0,0,1,3,1.21A4.66,4.66,0,0,1,70.65,339.66Zm-6.29,0q0,3,2.21,3t2.19-3q0-3-2.2-3a1.88,1.88,0,0,0-1.68.77A3.89,3.89,0,0,0,64.36,339.66Z" fill="#fff"/><path d="M76.24,344.16a3.78,3.78,0,0,1-3-1.14,5.8,5.8,0,0,1,0-6.64,4,4,0,0,1,3.08-1.17,5.79,5.79,0,0,1,2.46.51l-.55,1.48a5.57,5.57,0,0,0-1.92-.45q-2.24,0-2.24,3a3.57,3.57,0,0,0,.56,2.18,1.93,1.93,0,0,0,1.64.73,4.7,4.7,0,0,0,2.32-.61v1.6a3.6,3.6,0,0,1-1.05.41A6.32,6.32,0,0,1,76.24,344.16Z" fill="#fff"/><path d="M86.09,344l-.37-1.2h-.06a3.53,3.53,0,0,1-1.26,1.07,4,4,0,0,1-1.62.29,2.75,2.75,0,0,1-2-.69,2.57,2.57,0,0,1-.71-1.95,2.28,2.28,0,0,1,1-2,5.72,5.72,0,0,1,3-.74l1.49,0v-.46a1.75,1.75,0,0,0-.39-1.24,1.58,1.58,0,0,0-1.2-.41,4.16,4.16,0,0,0-1.27.2,9.77,9.77,0,0,0-1.17.46L81,336a6.43,6.43,0,0,1,1.54-.56,7.12,7.12,0,0,1,1.58-.19,3.74,3.74,0,0,1,2.49.72,2.82,2.82,0,0,1,.84,2.26V344Zm-2.73-1.25a2.27,2.27,0,0,0,1.61-.56,2,2,0,0,0,.61-1.57v-.75l-1.11,0a3.8,3.8,0,0,0-1.89.43,1.32,1.32,0,0,0-.59,1.18,1.15,1.15,0,0,0,.34.89A1.48,1.48,0,0,0,83.35,342.75Z" fill="#fff"/><path d="M91.8,344H90V331.84H91.8Z" fill="#fff"/><path d="M105.36,340.9a2.87,2.87,0,0,1-1.1,2.39,4.79,4.79,0,0,1-3,.87,7.25,7.25,0,0,1-3.17-.6v-1.77a8.59,8.59,0,0,0,1.66.58,7,7,0,0,0,1.64.21,2.6,2.6,0,0,0,1.64-.42,1.37,1.37,0,0,0,.53-1.13,1.42,1.42,0,0,0-.48-1.09,7.29,7.29,0,0,0-2-1.05,5.28,5.28,0,0,1-2.2-1.45,3.06,3.06,0,0,1-.64-2,2.74,2.74,0,0,1,1-2.25,4.21,4.21,0,0,1,2.73-.82,8,8,0,0,1,3.27.72l-.59,1.52a7.14,7.14,0,0,0-2.72-.64,2.09,2.09,0,0,0-1.37.39,1.3,1.3,0,0,0-.47,1,1.47,1.47,0,0,0,.19.76,1.92,1.92,0,0,0,.62.6,10.34,10.34,0,0,0,1.55.74,8.5,8.5,0,0,1,1.84,1,2.88,2.88,0,0,1,.86,1A3.08,3.08,0,0,1,105.36,340.9Z" fill="#fff"/><path d="M110.59,342.67a4.46,4.46,0,0,0,1.34-.21v1.38a3.67,3.67,0,0,1-.79.22,5.44,5.44,0,0,1-1,.09q-2.61,0-2.61-2.75v-4.66h-1.18v-.81l1.27-.67.63-1.83h1.13v1.92h2.46v1.39h-2.46v4.63a1.3,1.3,0,0,0,.33,1A1.21,1.21,0,0,0,110.59,342.67Z" fill="#fff"/><path d="M121.33,339.66a4.72,4.72,0,0,1-1.09,3.3,3.89,3.89,0,0,1-3,1.19,4.14,4.14,0,0,1-2.14-.55,3.6,3.6,0,0,1-1.43-1.57,5.35,5.35,0,0,1-.5-2.37,4.69,4.69,0,0,1,1.08-3.28,3.91,3.91,0,0,1,3-1.18,3.81,3.81,0,0,1,3,1.21A4.66,4.66,0,0,1,121.33,339.66Zm-6.29,0q0,3,2.21,3t2.19-3q0-3-2.2-3a1.88,1.88,0,0,0-1.68.77A3.89,3.89,0,0,0,115,339.66Z" fill="#fff"/><path d="M127.82,335.2a4.44,4.44,0,0,1,.91.08l-.18,1.71a3.47,3.47,0,0,0-.81-.09,2.35,2.35,0,0,0-1.79.72,2.6,2.6,0,0,0-.68,1.87V344h-1.84v-8.64h1.44l.24,1.52h.09a3.43,3.43,0,0,1,1.12-1.23A2.67,2.67,0,0,1,127.82,335.2Z" fill="#fff"/><path d="M135.74,344l-.37-1.2h-.06a3.53,3.53,0,0,1-1.26,1.07,4,4,0,0,1-1.62.29,2.75,2.75,0,0,1-2-.69,2.57,2.57,0,0,1-.71-1.95,2.28,2.28,0,0,1,1-2,5.72,5.72,0,0,1,3-.74l1.49,0v-.46a1.75,1.75,0,0,0-.39-1.24,1.58,1.58,0,0,0-1.2-.41,4.16,4.16,0,0,0-1.27.2,9.77,9.77,0,0,0-1.17.46l-.59-1.31a6.43,6.43,0,0,1,1.54-.56,7.12,7.12,0,0,1,1.58-.19,3.74,3.74,0,0,1,2.49.72,2.82,2.82,0,0,1,.84,2.26V344ZM133,342.75a2.27,2.27,0,0,0,1.61-.56,2,2,0,0,0,.61-1.57v-.75l-1.11,0a3.8,3.8,0,0,0-1.89.43,1.32,1.32,0,0,0-.59,1.18,1.15,1.15,0,0,0,.34.89A1.48,1.48,0,0,0,133,342.75Z" fill="#fff"/><path d="M146.91,335.36v1l-1.48.27a2.39,2.39,0,0,1,.34.67,2.64,2.64,0,0,1,.13.84,2.59,2.59,0,0,1-.92,2.1,3.86,3.86,0,0,1-2.54.77,4.08,4.08,0,0,1-.75-.06,1,1,0,0,0-.59.86.48.48,0,0,0,.28.45,2.39,2.39,0,0,0,1,.15h1.51a3.35,3.35,0,0,1,2.17.61,2.14,2.14,0,0,1,.74,1.76,2.56,2.56,0,0,1-1.21,2.27,6.38,6.38,0,0,1-3.5.8,4.83,4.83,0,0,1-2.7-.62,2,2,0,0,1-.93-1.78,1.9,1.9,0,0,1,.5-1.34,2.7,2.7,0,0,1,1.41-.75,1.37,1.37,0,0,1-.61-.5,1.3,1.3,0,0,1,0-1.55,3.17,3.17,0,0,1,.81-.66,2.4,2.4,0,0,1-1.09-.94,2.77,2.77,0,0,1-.42-1.53A2.74,2.74,0,0,1,140,336a3.73,3.73,0,0,1,2.53-.77,6.28,6.28,0,0,1,.77.05,5,5,0,0,1,.61.11Zm-6.79,10a1,1,0,0,0,.54.91,2.94,2.94,0,0,0,1.5.32,4.55,4.55,0,0,0,2.23-.43,1.29,1.29,0,0,0,.73-1.14.86.86,0,0,0-.4-.8,3.23,3.23,0,0,0-1.5-.24h-1.39a2,2,0,0,0-1.25.37A1.22,1.22,0,0,0,140.13,345.34Zm.79-7.19a1.74,1.74,0,0,0,.42,1.25,1.58,1.58,0,0,0,1.2.44q1.59,0,1.59-1.7a1.93,1.93,0,0,0-.39-1.3,1.5,1.5,0,0,0-1.2-.46,1.55,1.55,0,0,0-1.21.45A1.91,1.91,0,0,0,140.91,338.16Z" fill="#fff"/><path d="M152.29,344.16a4.18,4.18,0,0,1-3.15-1.18,4.46,4.46,0,0,1-1.14-3.24,4.9,4.9,0,0,1,1.05-3.33,3.64,3.64,0,0,1,2.9-1.21,3.56,3.56,0,0,1,2.7,1,4,4,0,0,1,1,2.86v1h-5.76a2.84,2.84,0,0,0,.68,1.93,2.36,2.36,0,0,0,1.8.68,6.64,6.64,0,0,0,1.43-.14,7.37,7.37,0,0,0,1.42-.48v1.49a5.6,5.6,0,0,1-1.36.45A8.3,8.3,0,0,1,152.29,344.16Zm-.34-7.56a1.85,1.85,0,0,0-1.4.55,2.64,2.64,0,0,0-.63,1.62h3.92a2.4,2.4,0,0,0-.52-1.62A1.76,1.76,0,0,0,152,336.59Z" fill="#fff"/><path d="M25.44,28.64a2.44,2.44,0,0,1,.72.11A19.78,19.78,0,0,1,29,26.13a2.4,2.4,0,0,1,.06-1.34,17.94,17.94,0,0,0-3.76-2.07,11.55,11.55,0,0,0-3.23,3,18.09,18.09,0,0,0,2.3,3.2A2.43,2.43,0,0,1,25.44,28.64ZM23,31.09a2.44,2.44,0,0,1,.2-1,19.72,19.72,0,0,1-2.12-2.78,11.49,11.49,0,0,0,.39,11,19.49,19.49,0,0,1,2-5.82A2.43,2.43,0,0,1,23,31.09Zm8.4-8a2.43,2.43,0,0,1,1.67.66,19.49,19.49,0,0,1,4-1.24,11.5,11.5,0,0,0-9.78-.8,19.71,19.71,0,0,1,2.85,1.72A2.43,2.43,0,0,1,31.4,23.11Zm3.66,11.52a2.45,2.45,0,0,1,.64-.82,17.9,17.9,0,0,0-3.34-6A2.44,2.44,0,0,1,30,27.55a18,18,0,0,0-2.45,2.25,2.44,2.44,0,0,1,.26,2A17.79,17.79,0,0,0,35.05,34.63Zm3.17,3.3q.05.69.05,1.4a19.83,19.83,0,0,1-.15,2.45A11.52,11.52,0,0,0,42.31,36a19.54,19.54,0,0,1-2.73.46A2.45,2.45,0,0,1,38.23,37.94Zm-3.75-1.66a19.51,19.51,0,0,1-7.76-3.11,2.43,2.43,0,0,1-1.28.36,2.46,2.46,0,0,1-.5-.05,17.79,17.79,0,0,0-2,6.86,11.52,11.52,0,0,0,3.93,2.75A19.57,19.57,0,0,1,34.48,36.28ZM39.07,24a17.78,17.78,0,0,0-5.24,1.34,2.27,2.27,0,0,1,0,.24,2.44,2.44,0,0,1-.25,1.08,19.61,19.61,0,0,1,3.71,6.61,2.45,2.45,0,0,1,2.21,1.49,17.77,17.77,0,0,0,3.22-.63,11.62,11.62,0,0,0,.11-1.61A11.47,11.47,0,0,0,39.07,24ZM35.71,37.59a17.87,17.87,0,0,0-7.15,6.07,11.51,11.51,0,0,0,7.65-.73,17.89,17.89,0,0,0,.36-3.59c0-.44,0-.88-.05-1.32A2.45,2.45,0,0,1,35.71,37.59Z" fill="#0399ff"/><path d="M43.59,136.14a12.25,12.25,0,1,1-12.25-12.25A12.25,12.25,0,0,1,43.59,136.14Z" fill="#58596c"/><path d="M42.69,131.51H20a12.25,12.25,0,1,0,22.68,0Z" fill="#ff5856"/><path d="M43.57,135.43q0-.43-.08-.86H36.09v-2.63h6.77q-.16-.44-.35-.86H20.19q-.19.42-.35.86H26.6v2.63H19.2q-.05.43-.08.86h3.17v2.63h-3q.07.44.17.86H26.6v2.63H20.36q.22.44.47.86h1.47v2A12.33,12.33,0,0,0,24,145.9H26.6v1.53q.42.18.86.32V145.9h7.76v1.86q.44-.15.86-.32V145.9h2.65a12.33,12.33,0,0,0,1.66-1.51v-2h1.47q.25-.42.47-.86H36.09v-2.63h7.19q.1-.42.17-.86h-3v-2.63Zm-16.11-3.49h7.76v2.63H27.47Zm-4.31,6.12v-2.63h7.76v2.63Zm7.76,7H23.15v-2.63h7.76Zm-3.45-3.49v-2.63h7.76v2.63Zm12.07.86V145H31.78v-2.63Zm0-4.35H31.78v-2.63h7.76Z" fill="#db4040"/><path d="M24.79,131.71a.93.93,0,0,1,0-.2H20a12.26,12.26,0,0,0,4.78,15Z" fill="#db4040"/><path d="M24.79,138.92v-.86H23.15v-2.63h1.64v-.86H19.2q-.05.43-.08.86h3.17v2.63h-3q.07.44.17.86Z" fill="#cc3636"/><path d="M24.79,131.71a.93.93,0,0,1,.25-.63H20.19q-.19.42-.35.86h5Z" fill="#cc3636"/><path d="M24.79,145H23.15v-2.63h1.64v-.86H20.36q.22.44.47.86h1.47v2A12.33,12.33,0,0,0,24,145.9h.84Z" fill="#cc3636"/><path d="M38.43,134.85l-1.79.56a3.82,3.82,0,0,0,.2-4.82,5.28,5.28,0,0,1-1.15-2.82.31.31,0,0,0-.56-.14,7.36,7.36,0,0,0-.89,1.9h0a5.22,5.22,0,0,0-1.45-3.89,3.6,3.6,0,0,1-1-3.18.31.31,0,0,0-.47-.32,9.47,9.47,0,0,0-4.46,9.61h0c0,.27-.16.19-.22.14a7.71,7.71,0,0,1-1.2-1.28.31.31,0,0,0-.54.08,9.44,9.44,0,0,0,.68,7.9,6.65,6.65,0,0,0,6,3c4.46,0,6.9-2.7,7.36-6.4A.31.31,0,0,0,38.43,134.85Z" fill="#ffdc67"/><path d="M26.48,132.05a.31.31,0,0,1,.12-.15l0,0a7.71,7.71,0,0,1-1.2-1.28.31.31,0,0,0-.54.08c-1.27,3.55-.43,8.14,2.87,10A9.09,9.09,0,0,1,26.48,132.05Z" fill="#ffb456"/><path d="M26.78,131.74a.41.41,0,0,1,0,.1A.31.31,0,0,1,27,132a7.7,7.7,0,0,0,1.2,1.28c.07,0,.22.13.22-.14h0a9.47,9.47,0,0,1,3.43-8.88,3.32,3.32,0,0,1-.15-1.78.31.31,0,0,0-.47-.32,9.47,9.47,0,0,0-4.46,9.61Z" fill="#ffb456"/><path d="M35.47,137.69l-1.06.34a2.27,2.27,0,0,0,.12-2.87,3.14,3.14,0,0,1-.68-1.68.18.18,0,0,0-.33-.08,4.39,4.39,0,0,0-.53,1.13h0a3.11,3.11,0,0,0-.86-2.31,2.14,2.14,0,0,1-.62-1.89.18.18,0,0,0-.28-.19,5.64,5.64,0,0,0-2.65,5.73h0c0,.16-.11.08-.13.07a4.58,4.58,0,0,1-.71-.76.18.18,0,0,0-.32,0c-.82,2.29-.17,5.21,2.13,6.15a8.84,8.84,0,0,0,2,.21,9.87,9.87,0,0,0,1.43-.1,4,4,0,0,0,2.81-3.59A.18.18,0,0,0,35.47,137.69Z" fill="#ffb456"/><path d="M28.77,140.75a5.62,5.62,0,0,1-.41-4.7.19.19,0,0,1,.09-.1l0,0a4.58,4.58,0,0,1-.71-.76.18.18,0,0,0-.32,0c-.76,2.11-.26,4.82,1.68,5.93A3.93,3.93,0,0,1,28.77,140.75Z" fill="#fc974d"/><path d="M28.54,135.86a.14.14,0,0,1,0,.07.18.18,0,0,1,.16.07,4.58,4.58,0,0,0,.71.76s.14.09.13-.07a5.64,5.64,0,0,1,2-5.3,2,2,0,0,1-.1-1.08.18.18,0,0,0-.28-.19,5.64,5.64,0,0,0-2.65,5.73Z" fill="#fc974d"/><path d="M31.61,137.23a.53.53,0,0,0-.69,0,2.88,2.88,0,0,0,0,4.31l0,0h.59l.06,0a2.88,2.88,0,0,0,0-4.31Z" fill="#fc974d"/><path d="M31.1,139.46a2.85,2.85,0,0,1,.77-2,2.7,2.7,0,0,0-.27-.27.53.53,0,0,0-.69,0,2.88,2.88,0,0,0,0,4.31l0,0h.59l.06,0,.19-.19A2.85,2.85,0,0,1,31.1,139.46Z" fill="#f47f31"/><path d="M43.11,244.14c-1.36.71-8.41,3.61-9.91,4.39a3.35,3.35,0,0,1-3.52.21c-1.19-.57-8.69-3.6-10-4.24-.68-.32-1-.6-1-.85v-2.58s9.77-2.13,11.35-2.69a4,4,0,0,1,3.47-.09c1.34.49,9.37,1.94,10.69,2.43,0,0,0,2.3,0,2.54s-.31.53-1,.9" fill="#912626"/><path d="M43.11,241.58c-1.36.71-8.41,3.61-9.91,4.39a3.35,3.35,0,0,1-3.52.21c-1.19-.57-8.69-3.6-10-4.24s-1.38-1.09-.05-1.61,8.79-3.45,10.37-4a4,4,0,0,1,3.47-.09c1.34.49,8.35,3.28,9.68,3.77s1.38.89,0,1.6" fill="#c6302b"/><path d="M43.11,240c-1.36.71-8.41,3.61-9.91,4.39a3.35,3.35,0,0,1-3.52.21c-1.19-.57-8.69-3.6-10-4.24-.68-.32-1-.6-1-.85v-2.58s9.77-2.13,11.35-2.69a4,4,0,0,1,3.47-.09c1.34.49,9.37,1.94,10.69,2.43,0,0,0,2.3,0,2.54s-.31.53-1,.9" fill="#912626"/><path d="M43.11,237.41c-1.36.71-8.41,3.61-9.91,4.39a3.35,3.35,0,0,1-3.52.21c-1.19-.57-8.69-3.6-10-4.24s-1.38-1.09-.05-1.61,8.79-3.45,10.37-4a4,4,0,0,1,3.47-.09c1.34.49,8.35,3.28,9.68,3.77s1.38.89,0,1.6h0" fill="#c6302b"/><path d="M43.11,235.64c-1.36.71-8.41,3.61-9.91,4.39a3.35,3.35,0,0,1-3.52.21c-1.19-.57-8.69-3.6-10-4.24-.68-.32-1-.6-1-.85v-2.58s9.77-2.13,11.35-2.69a4,4,0,0,1,3.47-.09c1.34.49,9.37,1.94,10.69,2.43,0,0,0,2.3,0,2.54s-.31.53-1,.9" fill="#912626"/><path d="M43.11,233.08c-1.36.71-8.41,3.61-9.91,4.39a3.35,3.35,0,0,1-3.52.21c-1.19-.57-8.69-3.6-10-4.24s-1.38-1.09-.05-1.61,8.79-3.45,10.37-4a4,4,0,0,1,3.47-.09c1.34.49,8.35,3.28,9.68,3.77s1.38.89,0,1.6" fill="#c6302b"/><path d="M34.47,230.57l-2.19.23L31.78,232,31,230.66l-2.53-.23,1.89-.68-.57-1,1.77.69,1.67-.55-.45,1.08,1.7.64" fill="#fff"/><path d="M31.65,236.3l-4.09-1.7,5.86-.9-1.77,2.6" fill="#fff"/><path d="M26,231.23c1.73,0,3.13.54,3.13,1.22s-1.4,1.22-3.13,1.22-3.13-.54-3.13-1.22,1.4-1.22,3.13-1.22" fill="#fff"/><path d="M37.06,230.9l3.47,1.37-3.47,1.37V230.9" fill="#621b1c"/><path d="M33.22,232.41l3.84-1.52v2.74l-.38.15-3.47-1.37" fill="#9a2928"/><path id="dfad9fa9-b23a-461b-b5cf-d1c677d6bdeb" data-name="&lt;Контур&gt;" d="M46.89,277.28c-.5,0-.34.16-1.43.43a22,22,0,0,0-3.61.68c-3.52,1.48-4.23,6.53-7.43,8.34-2.39,1.35-4.81,1.46-7,2.14a12.77,12.77,0,0,0-4.28,2.48c-1,.87-1,1.63-2.08,2.71s-4.46,0-6,1.8c.49.49.7.63,1.66.5-.2.38-1.37.69-1.14,1.25s3.07,1,5.65-.58c1.2-.72,2.15-1.77,4-2,2.42-.32,5.2.21,8,.61a12.46,12.46,0,0,1-1.91,3c-.21.22.41.25,1.12.11a11.19,11.19,0,0,0,3.16-1.13c1.18-.69,1.36-2.45,2.81-2.84a3.25,3.25,0,0,0,4.37.54c-1.2-.34-1.53-2.89-1.12-4s.76-2.76,1.15-4.17.57-3.41,1.07-4.18a9.89,9.89,0,0,1,2.31-2.21A3.24,3.24,0,0,0,47.6,278c0-.48-.26-.75-.71-.73Z" fill="#002b64"/><path id="671de9fe-a772-4f78-9efa-62b5f99e2d32" data-name="&lt;Контур&gt;" d="M16.14,297.5a7.22,7.22,0,0,0,4.42-.64c1.25-.54,2.46-1.66,3.94-2.14,2.17-.7,4.56,0,6.88.14a10,10,0,0,0,1.68,0c.87-.53.85-2.52,1.69-2.7a9.59,9.59,0,0,1-2.37,6.08,6.77,6.77,0,0,0,5-3.85,14.23,14.23,0,0,0,.81-1.89c.36.28.16,1.12.34,1.58,1.74-1,2.73-3.18,3.39-5.41.76-2.58,1.07-5.2,1.57-6A6.51,6.51,0,0,1,45.45,281,3,3,0,0,0,47,278.84c-.82-.08-1-.26-1.13-.68a2.44,2.44,0,0,1-1.21.29c-.37,0-.77,0-1.27,0-4.09.42-4.61,4.93-7.23,7.48a6.15,6.15,0,0,1-.61.52,12.89,12.89,0,0,1-3.08,1.57c-1.68.64-3.27.69-4.84,1.24A14.5,14.5,0,0,0,24.38,291c-.24.16-.46.33-.67.5a6.52,6.52,0,0,0-1.28,1.48,9.83,9.83,0,0,1-1.25,1.61c-.87.85-4.12.25-5.26,1a.93.93,0,0,0-.3.32c.62.28,1,.11,1.76.19.09.68-1.48,1.09-1.25,1.4Z" fill="#c49a6c"/><path id="87c40980-324f-4c59-af29-276b84ca935c" data-name="&lt;Контур&gt;" d="M40.92,292.59a5.94,5.94,0,0,0,.9,2.71,2.79,2.79,0,0,1-2.48-.68C39.52,293.82,40.44,293.09,40.92,292.59Z" fill="#c49a6c"/><path id="a9f2252f-7e23-4f8d-a328-1d9c68e6170d" data-name="&lt;Контур&gt;" d="M42.07,280.19a1,1,0,0,0,1.58-.9C42.74,279.22,42.22,279.52,42.07,280.19Z" fill="#002b64"/><path id="f364bbb8-408b-41d9-89a4-7bf16081799f" data-name="&lt;Контур&gt;" d="M46.1,279a3,3,0,0,0-.45,1.56c0,.14-.11.24-.11,0A3.07,3.07,0,0,1,46,279C46.1,278.81,46.16,278.89,46.1,279Z" fill="#002b64"/><path id="4baca134-e897-4748-8ca6-ff9bd8dcd38f" data-name="&lt;Контур&gt;" d="M45.95,278.9a3.71,3.71,0,0,0-.69,1.69c0,.14-.13.23-.11,0a3.79,3.79,0,0,1,.69-1.74C46,278.69,46,278.77,45.95,278.9Z" fill="#002b64"/><path id="e3aef36a-e064-4dce-acf1-17116026646b" data-name="&lt;Контур&gt;" d="M45.81,278.74a4.39,4.39,0,0,0-1,1.78c0,.14-.15.22-.11,0a4.56,4.56,0,0,1,1-1.82C45.84,278.53,45.89,278.62,45.81,278.74Z" fill="#002b64"/><path id="dfaeb26d-a54e-4265-a783-0c53f9911c81" data-name="&lt;Контур&gt;" d="M45.68,278.56a6.06,6.06,0,0,0-1.3,1.9c0,.13-.18.19-.11,0a6,6,0,0,1,1.31-1.95c.16-.15.19-.05.1.06Z" fill="#002b64"/><path d="M31.35,336.61A2.39,2.39,0,1,0,33.74,339,2.39,2.39,0,0,0,31.35,336.61Zm0,4.07A1.68,1.68,0,1,1,33,339,1.68,1.68,0,0,1,31.35,340.67Z" fill="#95aace"/><path d="M38.11,328.81H24.59a1.41,1.41,0,0,0-1.41,1.41v20.37A1.41,1.41,0,0,0,24.59,352H38.11a1.41,1.41,0,0,0,1.41-1.41V330.22A1.41,1.41,0,0,0,38.11,328.81Zm-12.69,1.53a.71.71,0,1,1-.71.71A.71.71,0,0,1,25.42,330.34Zm0,20.13a.71.71,0,1,1,.71-.71A.71.71,0,0,1,25.42,350.47Zm6.67-5.17v-2a.35.35,0,0,0-.71,0v2.93a.35.35,0,0,1-.1.24l-1.55,1.62a.35.35,0,0,1-.51-.49l1.46-1.52v-.74a6.35,6.35,0,1,1,1.41,0Zm5.2,5.17a.71.71,0,1,1,.71-.71A.71.71,0,0,1,37.28,350.47Zm0-18.72A.71.71,0,1,1,38,331,.71.71,0,0,1,37.28,331.75Z" fill="#95aace"/><path d="M37.72,84.07H34.09V82.19a2.72,2.72,0,1,0-5.43,0v1.87H25V82.19a6.35,6.35,0,1,1,12.7,0Z" fill="#ffa400"/><path d="M39.21,84.07H23.53a1.21,1.21,0,0,0-1.22,1.22V96.88a1.21,1.21,0,0,0,1.22,1.22H39.21a1.21,1.21,0,0,0,1.22-1.22V85.29A1.26,1.26,0,0,0,39.21,84.07Zm-7.08,7.61v1.57a.8.8,0,1,1-1.61,0V91.68a1.58,1.58,0,0,1-.8-1.42,1.61,1.61,0,1,1,3.21,0A1.51,1.51,0,0,1,32.14,91.68Z" fill="#fff"/><path d="M21.92,82.35H18.13a1.11,1.11,0,1,1,0-2.22h3.79a1.11,1.11,0,1,1,0,2.22Z" fill="#ffa400"/><path d="M24.6,76.38a1,1,0,0,1-.69-.27l-3-2.45a1.11,1.11,0,0,1,1.42-1.72l3,2.45A1.13,1.13,0,0,1,25.48,76,1.27,1.27,0,0,1,24.6,76.38Z" fill="#ffa400"/><path d="M31.37,73.78a1.11,1.11,0,0,1-1.11-1.11V68.84a1.11,1.11,0,1,1,2.22,0v3.83A1.11,1.11,0,0,1,31.37,73.78Z" fill="#ffa400"/><path d="M38.1,76.38a1.07,1.07,0,0,1-.84-.42,1.14,1.14,0,0,1,.15-1.57l3-2.45a1.11,1.11,0,1,1,1.42,1.72l-3,2.45A1.07,1.07,0,0,1,38.1,76.38Z" fill="#ffa400"/><path d="M44.57,82.35H40.74a1.11,1.11,0,0,1,0-2.22h3.83a1.11,1.11,0,0,1,0,2.22Z" fill="#ffa400"/><path d="M42.43,186.31l-6.74-6.74-2.87,3.64,3.09,3.09a.74.74,0,0,1,0,1l-.9.9s.6.9.63,1a1.1,1.1,0,0,1-.22,1.23l-7,5.4c0,1.81,0,5.54,0,5.54l14-14A.74.74,0,0,0,42.43,186.31Z" fill="#5e8cda"/><path d="M26.78,187.16a.74.74,0,0,1,0-1l.9-.9-.61-.88a1,1,0,0,1,.2-1.31l7-5.4v-5.54h0l-14,14a.73.73,0,0,0,0,1L27,193.89l2.87-3.64Z" fill="#093071"/><polygon points="31.47 191.6 31.47 191.6 28.21 194.86 31.47 191.6" fill="#fff"/><path d="M37.86,175.47a.27.27,0,0,1,.23.14c.07.15,0,.3-.12.42l-6.17,7.83a.43.43,0,0,0,0,.45l3.44,5a.82.82,0,0,1-.15.94l-9.92,7.61a.51.51,0,0,1-.32.14.28.28,0,0,1-.22-.14c-.07-.15,0-.3.12-.42l6.17-7.83a.43.43,0,0,0,0-.45l-3.44-5a.72.72,0,0,1,.15-1l9.92-7.61a.49.49,0,0,1,.31-.14m0-.13a.62.62,0,0,0-.39.17l-9.92,7.61a.85.85,0,0,0-.18,1.16l3.44,4.95a.3.3,0,0,1,0,.3l-6.17,7.83a.53.53,0,0,0-.13.56.41.41,0,0,0,.32.21.64.64,0,0,0,.4-.17l9.92-7.61a1,1,0,0,0,.18-1.11l-3.44-5a.3.3,0,0,1,0-.3l6.17-7.83a.52.52,0,0,0,.14-.55.39.39,0,0,0-.34-.21Z" fill="#5e8cda"/><path d="M35,189.32c.08.12.15.58,0,.73L25,197.66c-.08.06-.14.1-.16.09s0-.06.08-.18l6.16-7.82a.66.66,0,0,0,0-.74l-3.44-5S34.89,189.2,35,189.32Z" fill="#f5cd21"/><path d="M35,189.32l-3.39-4.87a.66.66,0,0,1,0-.74l6.17-7.83c.09-.12.12-.18.08-.18a.38.38,0,0,0-.16.09l-9.92,7.61a.48.48,0,0,0-.1.65Z" fill="#fddd75"/></svg>